<svg xmlns="http://www.w3.org/2000/svg" id="bank" viewBox="0 0 20 20" fill="none">
<path
d="M9.99966 6.71422C10.3406 6.71422 10.6677 6.57876 10.9088 6.33765C11.1499 6.09653 11.2854 5.7695 11.2854 5.42851C11.2854 5.08751 11.1499 4.76049 10.9088 4.51937C10.6677 4.27825 10.3406 4.14279 9.99966 4.14279C9.65866 4.14279 9.33164 4.27825 9.09052 4.51937C8.8494 4.76049 8.71394 5.08751 8.71394 5.42851C8.71394 5.7695 8.8494 6.09653 9.09052 6.33765C9.33164 6.57876 9.65866 6.71422 9.99966 6.71422ZM10.7625 0.967079C10.5415 0.804186 10.2742 0.716309 9.99966 0.716309C9.72512 0.716309 9.45779 0.804186 9.2368 0.967079L1.09394 6.97136C0.0962268 7.70765 0.616513 9.29165 1.8568 9.29165H2.28537V15.4991C1.77757 15.7107 1.34379 16.0679 1.03871 16.5256C0.733627 16.9834 0.570915 17.5212 0.571084 18.0714V19.3571C0.571084 19.7119 0.859084 19.9999 1.21394 19.9999H18.7854C18.9559 19.9999 19.1194 19.9322 19.2399 19.8116C19.3605 19.6911 19.4282 19.5276 19.4282 19.3571V18.0714C19.4282 17.5214 19.2654 16.9837 18.9604 16.5261C18.6553 16.0685 18.2216 15.7115 17.7139 15.4999V9.29165H18.1417C19.3828 9.29165 19.9031 7.70765 18.9045 6.97136L10.7625 0.967079ZM3.57108 15.2857V9.29165H5.71394V15.2857H3.57108ZM16.4282 9.29165V15.2857H14.2854V9.29165H16.4282ZM12.9997 9.29165V15.2857H10.6425V9.29165H12.9997ZM9.3568 9.29165V15.2857H6.99966V9.29165H9.3568ZM1.8568 8.00594L9.99966 2.00165L18.1417 8.00594H1.8568ZM1.8568 18.0714C1.8568 17.2434 2.5288 16.5714 3.3568 16.5714H16.6425C17.4705 16.5714 18.1425 17.2434 18.1425 18.0714V18.7142H1.8568V18.0714Z"
fill="currentColor" />
</svg>